P2
24 7
63
 0  0  0  0  0  0  0  0  0  0  0  0  0  0  0  0  0  0  0  0  0  0  0  0 
 0 12 12 12 12  0  0 29 29 29 29  0  0 46 46 46 46  0  0 63 63 63 63  0 
 0 12  0  0  0  0  0 29  0  0  0  0  0 46  0  0  0  0  0 63  0  0 63  0 
 0 12 12 12  0  0  0 29 29 29  0  0  0 46 46 46  0  0  0 63 63 63 63  0 
 0 12  0  0  0  0  0 29  0  0  0  0  0 46  0  0  0  0  0 63  0  0  0  0 
 0 12  0  0  0  0  0 29 29 29 29  0  0 46 46 46 46  0  0 63  0  0  0  0 
 0  0  0  0  0  0  0  0  0  0  0  0  0  0  0  0  0  0  0  0  0  0  0  0 
